<?xml version="1.0" standalone="no"?>
<!DOCTYPE svg PUBLIC "-//W3C//DTD SVG 20010904//EN"
 "http://www.w3.org/TR/2001/REC-SVG-20010904/DTD/svg10.dtd">
<svg version="1.0" xmlns="http://www.w3.org/2000/svg"
 width="512.000000pt" height="512.000000pt" viewBox="0 0 512.000000 512.000000"
 preserveAspectRatio="xMidYMid meet">
<metadata>
Created by potrace 1.11, written by Peter Selinger 2001-2013
</metadata>
<g transform="translate(0.000000,512.000000) scale(0.100000,-0.100000)"
fill="#000000" stroke="none">
<path d="M2500 4811 c-44 -14 -88 -40 -107 -64 -14 -19 -33 -26 -78 -31 -261
-31 -480 -94 -695 -199 -69 -33 -142 -71 -163 -84 -34 -21 -42 -23 -73 -13
-26 9 -47 9 -87 0 -92 -22 -150 -82 -163 -169 -6 -40 -16 -54 -92 -125 -177
-168 -334 -383 -443 -606 -48 -99 -68 -130 -86 -134 -35 -9 -94 -66 -114 -111
-24 -53 -24 -113 2 -172 20 -45 20 -54 9 -151 -34 -310 -31 -558 10 -775 l22
-114 -21 -41 c-24 -48 -28 -127 -7 -175 17 -42 71 -96 114 -114 20 -8 37 -23
40 -36 6 -24 104 -216 131 -257 149 -222 165 -243 329 -410 99 -102 122 -131
122 -155 0 -49 37 -111 87 -144 52 -35 97 -46 155 -38 35 5 57 -3 176 -64 76
-38 169 -80 207 -95 166 -62 385 -115 530 -129 62 -7 74 -11 105 -43 45 -44
87 -62 148 -62 57 0 142 39 166 75 12 19 25 25 51 25 98 0 373 61 530 117 39
14 140 60 225 102 152 75 156 76 232 76 69 0 80 3 119 31 50 36 89 102 89 149
0 28 17 49 123 156 194 196 302 344 413 570 51 102 69 129 92 138 39 16 88 68
106 113 21 50 20 97 -4 162 l-21 54 21 113 c50 280 45 529 -17 850 -3 16 4 43
16 67 52 103 1 245 -101 282 -30 11 -41 27 -91 130 -107 217 -261 430 -441
605 -84 82 -94 95 -104 144 -15 66 -41 104 -95 135 -56 32 -97 39 -146 26 -36
-9 -45 -8 -78 13 -72 45 -269 135 -373 170 -176 59 -296 87 -453 107 -69 8
-84 14 -125 48 -68 57 -126 73 -192 53z m400 -216 c354 -64 622 -181 924 -405
78 -57 288 -267 357 -355 238 -308 381 -654 429 -1041 18 -139 7 -453 -19
-597 -34 -186 -94 -368 -176 -532 -130 -262 -265 -444 -473 -634 -276 -253
-639 -432 -1019 -502 -144 -26 -458 -37 -597 -19 -387 48 -733 191 -1041 429
-88 69 -298 279 -355 357 -225 303 -339 566 -406 929 -15 80 -19 149 -19 345
1 229 2 254 29 380 65 313 179 572 370 839 312 437 862 756 1411 821 116 14
477 5 585 -15z"/>
<path d="M2346 4509 c-305 -32 -608 -142 -866 -315 -244 -163 -390 -309 -554
-554 -384 -572 -432 -1307 -128 -1940 56 -115 160 -285 204 -331 7 -8 25 -30
39 -49 44 -59 209 -223 289 -287 572 -458 1338 -560 2019 -269 104 45 297 159
403 238 106 80 286 260 366 366 426 570 520 1301 249 1953 -68 163 -163 323
-280 469 -64 80 -228 245 -287 289 -19 14 -41 32 -49 39 -7 7 -46 35 -86 62
-389 262 -853 378 -1319 329z m424 -113 c147 -18 239 -39 370 -82 603 -200
1058 -692 1216 -1314 112 -444 38 -965 -193 -1358 -273 -464 -723 -790 -1232
-892 -429 -86 -875 -21 -1246 182 -290 160 -543 400 -708 675 -217 359 -306
802 -247 1218 61 423 279 827 600 1112 308 274 656 423 1090 466 88 9 246 6
350 -7z"/>
<path d="M2410 3599 c-25 -5 -78 -17 -119 -26 -64 -13 -184 -63 -258 -106 -58
-35 -171 -141 -212 -200 -8 -12 -23 -31 -33 -41 -17 -19 -97 -173 -102 -198
-2 -7 -8 -24 -13 -38 -6 -14 -21 -75 -34 -135 -28 -132 -33 -390 -10 -490 21
-95 54 -209 63 -221 4 -6 14 -29 22 -52 8 -23 20 -47 26 -54 6 -7 25 -35 42
-63 18 -27 64 -82 103 -121 124 -125 247 -192 440 -240 96 -24 130 -28 270
-28 176 -1 226 3 372 34 100 20 272 75 331 105 l32 16 0 155 c0 85 -3 154 -8
154 -4 0 -16 -6 -27 -13 -39 -25 -191 -86 -290 -116 -220 -66 -514 -67 -668
-3 -16 7 -32 12 -36 12 -4 0 -39 22 -78 49 -74 52 -148 140 -189 225 -24 50
-58 176 -70 259 l-6 47 721 0 721 0 0 153 c0 137 -4 181 -25 297 -8 47 -63
200 -80 227 -8 12 -24 38 -35 58 -28 50 -35 58 -122 146 -64 65 -94 86 -180
128 -59 29 -135 57 -178 66 -90 20 -308 28 -370 14z m285 -293 c137 -30 249
-123 315 -260 36 -77 60 -174 60 -244 l0 -32 -550 0 -549 0 6 53 c9 73 55 197
99 262 61 92 126 142 269 206 62 28 255 36 350 15z"/>
</g>
</svg>
